<svg width="12" height="13" viewBox="0 0 12 13" fill="none" xmlns="http://www.w3.org/2000/svg">
<path d="M5.09915 11.6226C5.09915 11.8779 4.89228 12.0848 4.63703 12.0848H2.60368C1.58439 12.0848 0.755188 11.2556 0.755188 10.2363V2.10289C0.755188 1.0836 1.58439 0.254395 2.60368 0.254395H8.28528C9.30448 0.254395 10.1338 1.0836 10.1338 2.10289V6.51617C10.1338 6.77142 9.92681 6.9783 9.67165 6.9783C9.4164 6.9783 9.20953 6.77142 9.20953 6.51617V2.10289C9.20953 1.59329 8.79488 1.17864 8.28528 1.17864H2.60368C2.09408 1.17864 1.67944 1.59329 1.67944 2.10289V10.2363C1.67944 10.7459 2.09408 11.1605 2.60368 11.1605H4.63703C4.89228 11.1605 5.09915 11.3674 5.09915 11.6226ZM7.82315 3.02714H3.06328C2.80803 3.02714 2.60116 3.23401 2.60116 3.48926C2.60116 3.74451 2.80803 3.95139 3.06328 3.95139H7.82315C8.07832 3.95139 8.28528 3.74451 8.28528 3.48926C8.28528 3.23401 8.07832 3.02714 7.82315 3.02714ZM8.28528 5.33776C8.28528 5.08251 8.07832 4.87563 7.82315 4.87563H3.06328C2.80803 4.87563 2.60116 5.08251 2.60116 5.33776C2.60116 5.59301 2.80803 5.79988 3.06328 5.79988H7.82315C8.07832 5.79988 8.28528 5.59301 8.28528 5.33776ZM3.06328 6.72413C2.80803 6.72413 2.60116 6.931 2.60116 7.18625C2.60116 7.4415 2.80803 7.64838 3.06328 7.64838H5.49196C5.74721 7.64838 5.95408 7.4415 5.95408 7.18625C5.95408 6.931 5.74721 6.72413 5.49196 6.72413H3.06328ZM11.2769 10.1091C11.2607 10.1323 11.205 10.2111 11.1704 10.2547C11.0156 10.4494 10.6533 10.9051 10.1492 11.3074C9.50287 11.8232 8.83775 12.0848 8.17227 12.0848C7.5068 12.0848 6.84168 11.8232 6.19534 11.3074C5.69125 10.9051 5.32895 10.4493 5.17425 10.2547C5.13959 10.2111 5.0839 10.1322 5.06765 10.1091C4.95564 9.9497 4.95564 9.73714 5.06765 9.57774C5.0839 9.55464 5.13959 9.47575 5.17425 9.43216C5.32895 9.23756 5.69125 8.78184 6.19534 8.37956C6.84168 7.86373 7.5068 7.60216 8.17227 7.60216C8.83775 7.60216 9.50287 7.86373 10.1492 8.37956C10.6533 8.78184 11.0156 9.23765 11.1703 9.43225C11.205 9.47584 11.2607 9.55473 11.2769 9.57783C11.3889 9.73723 11.3889 9.9497 11.2769 10.1091ZM10.3129 9.84346C9.57814 8.96931 8.85869 8.52641 8.17227 8.52641C7.48595 8.52641 6.76641 8.96922 6.03161 9.84346C6.76641 10.7176 7.48586 11.1605 8.17227 11.1605C8.85869 11.1605 9.57814 10.7177 10.3129 9.84346ZM8.19538 8.96543C7.71042 8.96543 7.31735 9.3585 7.31735 9.84346C7.31735 10.3284 7.71042 10.7215 8.19538 10.7215C8.68034 10.7215 9.07342 10.3284 9.07342 9.84346C9.07342 9.3585 8.68034 8.96543 8.19538 8.96543Z" fill="#507FF9"/>
</svg>
